<svg width="28" height="28" viewBox="0 0 28 28" fill="none" xmlns="http://www.w3.org/2000/svg">
<path d="M12.3411 2.34693C12.0111 2.36351 11.6782 2.3974 11.3431 2.44947C6.39899 3.21944 3.11558 7.83498 3.54556 12.7626C3.72869 14.8751 4.55048 16.1332 5.27505 17.1786C6.18062 18.4868 6.99999 19.5579 6.99999 22.4469V25.6666H17.5V22.1666H19.8333C21.1086 22.1666 22.1667 21.1085 22.1667 19.8333V16.3583L23.5976 15.7545C24.2517 15.4791 24.5542 14.4845 24.1787 13.8928L22.1051 10.6389V10.6366C21.5702 5.75336 17.2915 2.09824 12.3411 2.34693V2.34693ZM11.6667 4.76002V10.8167C10.946 11.2327 10.5015 12.0011 10.5 12.8333C10.5 14.1219 11.5447 15.1666 12.8333 15.1666C13.0372 15.1665 13.2402 15.1397 13.4372 15.0868L15.1712 16.8209C15.1688 16.8527 15.1673 16.8847 15.1667 16.9166C15.1667 17.8831 15.9502 18.6666 16.9167 18.6666C17.8832 18.6666 18.6667 17.8831 18.6667 16.9166C18.6667 15.9501 17.8832 15.1666 16.9167 15.1666C16.8847 15.1672 16.8528 15.1688 16.821 15.1712L15.0846 13.4348C15.1381 13.2387 15.1656 13.0365 15.1667 12.8333C15.166 12.0003 14.7214 11.2309 14 10.8144V4.76002C17.0579 5.26081 19.4383 7.72314 19.7855 10.8919L19.8447 11.4319L20.1364 11.8922L21.5378 14.0911L19.8333 14.8111V15.5836V19.8333H15.1667V23.3333H9.33332V22.4469C9.33332 19.0498 8.09878 17.1577 7.19368 15.8502C6.46925 14.805 6.01332 14.218 5.86978 12.5621V12.5598C5.5402 8.7828 7.98639 5.3535 11.6667 4.76002L11.6667 4.76002Z" fill="#FFC700"/>
</svg>
