<svg width="24" height="24" viewBox="0 0 24 24" fill="none" xmlns="http://www.w3.org/2000/svg">
<g clip-path="url(#clip0_1_42615)">
<path d="M14.775 13.1699C14.905 13.1699 15.3925 13.3899 16.2375 13.8299C17.0825 14.2699 17.53 14.5349 17.58 14.6249C17.6 14.6749 17.61 14.7499 17.61 14.8499C17.61 15.1799 17.525 15.5599 17.355 15.9899C17.195 16.3799 16.84 16.7074 16.29 16.9724C15.74 17.2374 15.23 17.3699 14.76 17.3699C14.19 17.3699 13.24 17.0599 11.91 16.4399C10.93 15.9899 10.08 15.3999 9.36 14.6699C8.64 13.9399 7.9 13.0149 7.14 11.8949C6.42 10.8249 6.065 9.85489 6.075 8.98489V8.86489C6.105 7.95489 6.475 7.16489 7.185 6.49489C7.425 6.27489 7.685 6.16489 7.965 6.16489C8.025 6.16489 8.115 6.17239 8.235 6.18739C8.355 6.20239 8.45 6.20989 8.52 6.20989C8.71 6.20989 8.8425 6.24239 8.9175 6.30739C8.9925 6.37239 9.07 6.50989 9.15 6.71989C9.23 6.91989 9.395 7.35989 9.645 8.03989C9.895 8.71989 10.02 9.09489 10.02 9.16489C10.02 9.37489 9.8475 9.66239 9.5025 10.0274C9.1575 10.3924 8.985 10.6249 8.985 10.7249C8.985 10.7949 9.01 10.8699 9.06 10.9499C9.4 11.6799 9.91 12.3649 10.59 13.0049C11.15 13.5349 11.905 14.0399 12.855 14.5199C12.975 14.5899 13.085 14.6249 13.185 14.6249C13.335 14.6249 13.605 14.3824 13.995 13.8974C14.385 13.4124 14.645 13.1699 14.775 13.1699ZM11.73 21.1199C13 21.1199 14.2175 20.8699 15.3825 20.3699C16.5475 19.8699 17.55 19.1999 18.39 18.3599C19.23 17.5199 19.9 16.5174 20.4 15.3524C20.9 14.1874 21.15 12.9699 21.15 11.6999C21.15 10.4299 20.9 9.21239 20.4 8.04739C19.9 6.88239 19.23 5.87989 18.39 5.03989C17.55 4.19989 16.5475 3.52989 15.3825 3.02989C14.2175 2.52989 13 2.27989 11.73 2.27989C10.46 2.27989 9.2425 2.52989 8.0775 3.02989C6.9125 3.52989 5.91 4.19989 5.07 5.03989C4.23 5.87989 3.56 6.88239 3.06 8.04739C2.56 9.21239 2.31 10.4299 2.31 11.6999C2.31 13.7299 2.91 15.5699 4.11 17.2199L2.925 20.7149L6.555 19.5599C8.135 20.5999 9.86 21.1199 11.73 21.1199ZM11.73 0.389893C13.26 0.389893 14.7225 0.689893 16.1175 1.28989C17.5125 1.88989 18.715 2.69489 19.725 3.70489C20.735 4.71489 21.54 5.91739 22.14 7.31239C22.74 8.70739 23.04 10.1699 23.04 11.6999C23.04 13.2299 22.74 14.6924 22.14 16.0874C21.54 17.4824 20.735 18.6849 19.725 19.6949C18.715 20.7049 17.5125 21.5099 16.1175 22.1099C14.7225 22.7099 13.26 23.0099 11.73 23.0099C9.78 23.0099 7.955 22.5399 6.255 21.5999L0 23.6099L2.04 17.5349C0.96 15.7549 0.42 13.8099 0.42 11.6999C0.42 10.1699 0.72 8.70739 1.32 7.31239C1.92 5.91739 2.725 4.71489 3.735 3.70489C4.745 2.69489 5.9475 1.88989 7.3425 1.28989C8.7375 0.689893 10.2 0.389893 11.73 0.389893Z" fill="#FFC700"/>
</g>
<defs>
<clipPath id="clip0_1_42615">
<rect width="23.04" height="24" fill="white"/>
</clipPath>
</defs>
</svg>
