<svg width="38" height="38" viewBox="0 0 38 38" fill="none" xmlns="http://www.w3.org/2000/svg">
<path fill-rule="evenodd" clip-rule="evenodd" d="M11.4417 0.776748C13.3967 0.686748 14.02 0.666748 19 0.666748C23.98 0.666748 24.6033 0.688415 26.5567 0.776748C28.51 0.865081 29.8433 1.17675 31.01 1.62841C32.2317 2.09008 33.34 2.81175 34.2567 3.74508C35.19 4.66008 35.91 5.76675 36.37 6.99008C36.8233 8.15675 37.1333 9.49008 37.2233 11.4401C37.3133 13.3984 37.3333 14.0217 37.3333 19.0001C37.3333 23.9801 37.3117 24.6034 37.2233 26.5584C37.135 28.5084 36.8233 29.8417 36.37 31.0084C35.91 32.2319 35.1888 33.3404 34.2567 34.2567C33.34 35.1901 32.2317 35.9101 31.01 36.3701C29.8433 36.8234 28.51 37.1334 26.56 37.2234C24.6033 37.3134 23.98 37.3334 19 37.3334C14.02 37.3334 13.3967 37.3117 11.4417 37.2234C9.49166 37.1351 8.15832 36.8234 6.99166 36.3701C5.76819 35.91 4.65969 35.1888 3.74332 34.2567C2.81062 33.3412 2.08885 32.2332 1.62832 31.0101C1.17666 29.8434 0.866656 28.5101 0.776656 26.5601C0.686656 24.6017 0.666656 23.9784 0.666656 19.0001C0.666656 14.0201 0.688323 13.3967 0.776656 11.4434C0.86499 9.49008 1.17666 8.15675 1.62832 6.99008C2.08953 5.76688 2.81185 4.65894 3.74499 3.74341C4.66006 2.81092 5.76744 2.08915 6.98999 1.62841C8.15666 1.17675 9.48999 0.866748 11.44 0.776748H11.4417ZM26.4083 4.07675C24.475 3.98841 23.895 3.97008 19 3.97008C14.105 3.97008 13.525 3.98841 11.5917 4.07675C9.80332 4.15841 8.83332 4.45675 8.18666 4.70842C7.33166 5.04175 6.71999 5.43675 6.07832 6.07842C5.47007 6.67017 5.00196 7.39055 4.70832 8.18675C4.45666 8.83342 4.15832 9.80342 4.07666 11.5917C3.98832 13.5251 3.96999 14.1051 3.96999 19.0001C3.96999 23.8951 3.98832 24.4751 4.07666 26.4084C4.15832 28.1967 4.45666 29.1667 4.70832 29.8134C5.00166 30.6084 5.46999 31.3301 6.07832 31.9217C6.66999 32.5301 7.39166 32.9984 8.18666 33.2918C8.83332 33.5434 9.80332 33.8418 11.5917 33.9234C13.525 34.0117 14.1033 34.0301 19 34.0301C23.8967 34.0301 24.475 34.0117 26.4083 33.9234C28.1967 33.8418 29.1667 33.5434 29.8133 33.2918C30.6683 32.9584 31.28 32.5634 31.9217 31.9217C32.53 31.3301 32.9983 30.6084 33.2917 29.8134C33.5433 29.1667 33.8417 28.1967 33.9233 26.4084C34.0117 24.4751 34.03 23.8951 34.03 19.0001C34.03 14.1051 34.0117 13.5251 33.9233 11.5917C33.8417 9.80342 33.5433 8.83342 33.2917 8.18675C32.9583 7.33175 32.5633 6.72008 31.9217 6.07842C31.3299 5.4702 30.6095 5.0021 29.8133 4.70842C29.1667 4.45675 28.1967 4.15841 26.4083 4.07675ZM16.6583 24.6517C17.9661 25.1961 19.4223 25.2696 20.7782 24.8596C22.1341 24.4496 23.3056 23.5816 24.0927 22.4038C24.8797 21.226 25.2334 19.8115 25.0934 18.4019C24.9534 16.9923 24.3283 15.675 23.325 14.6751C22.6854 14.0359 21.912 13.5464 21.0605 13.242C20.2091 12.9376 19.3007 12.8257 18.4008 12.9144C17.5009 13.0032 16.6319 13.2904 15.8563 13.7553C15.0807 14.2202 14.4179 14.8513 13.9155 15.6032C13.4131 16.355 13.0836 17.2089 12.9509 18.1033C12.8181 18.9978 12.8852 19.9106 13.1476 20.7759C13.4099 21.6413 13.8608 22.4378 14.4679 23.108C15.0749 23.7781 15.823 24.3054 16.6583 24.6517ZM12.3367 12.3367C13.2117 11.4617 14.2505 10.7676 15.3938 10.294C16.5371 9.82045 17.7625 9.5767 19 9.5767C20.2375 9.5767 21.4629 9.82045 22.6062 10.294C23.7495 10.7676 24.7883 11.4617 25.6633 12.3367C26.5384 13.2118 27.2325 14.2506 27.7061 15.3939C28.1796 16.5372 28.4234 17.7626 28.4234 19.0001C28.4234 20.2376 28.1796 21.463 27.7061 22.6063C27.2325 23.7495 26.5384 24.7884 25.6633 25.6634C23.8961 27.4306 21.4992 28.4235 19 28.4235C16.5008 28.4235 14.1039 27.4306 12.3367 25.6634C10.5694 23.8962 9.57661 21.4993 9.57661 19.0001C9.57661 16.5008 10.5694 14.104 12.3367 12.3367ZM30.5133 10.9801C30.7302 10.7755 30.9038 10.5296 31.0238 10.2567C31.1439 9.98386 31.208 9.6897 31.2124 9.39163C31.2167 9.09357 31.1612 8.79766 31.0491 8.52143C30.9371 8.2452 30.7707 7.99427 30.5599 7.78348C30.3491 7.57269 30.0982 7.40634 29.822 7.29428C29.5457 7.18221 29.2498 7.12671 28.9518 7.13105C28.6537 7.1354 28.3595 7.1995 28.0867 7.31958C27.8139 7.43965 27.5679 7.61324 27.3633 7.83008C26.9655 8.2518 26.7477 8.81195 26.7562 9.39163C26.7646 9.97131 26.9986 10.5249 27.4086 10.9348C27.8185 11.3448 28.3721 11.5788 28.9518 11.5872C29.5315 11.5957 30.0916 11.3779 30.5133 10.9801Z" fill="white"/>
</svg>
