<svg width="64" height="64" viewBox="0 0 64 64" fill="none" xmlns="http://www.w3.org/2000/svg">
<path d="M60.09 17.2263C58.024 11.6398 53.0769 7.62376 47.185 6.75006C37.375 5.26881 32 14.3013 32 14.3013C32 14.3013 26.6313 5.26881 16.815 6.75006C10.9231 7.62376 5.97604 11.6398 3.91002 17.2263C2.35252 21.4313 1.92752 27.4338 5.58126 35.3263C5.58126 35.3263 11.9563 47.9938 29.805 56.8963C31.187 57.5863 32.813 57.5863 34.195 56.8963C52.0388 48.0001 58.4188 35.3263 58.4188 35.3263C62.0725 27.4338 61.6475 21.4313 60.09 17.2263L60.09 17.2263Z" fill="#FFC700"/>
<path d="M36.8088 32.975C37.2891 32.5923 37.886 32.3859 38.5 32.39H42.6713C43.0733 32.4036 43.4508 32.1968 43.6558 31.8507C43.8609 31.5046 43.8609 31.0742 43.6558 30.7281C43.4508 30.382 43.0733 30.1752 42.6713 30.1888H38.5C37.3803 30.1849 36.2932 30.5652 35.42 31.2663C33.6613 32.6925 32.2188 35.1825 31.3188 37.0163C30.7599 38.1378 29.6156 38.8476 28.3625 38.85C27.1597 38.8599 26.0491 38.2064 25.4738 37.15C23.9838 34.3725 23.3313 30.7975 23.325 30.7625L23.3138 30.7088C23.01 29.3913 22.695 28.1825 22.3775 27.1175C21.8505 25.3381 20.2956 24.057 18.4482 23.8803C16.6008 23.7035 14.8311 24.6665 13.9763 26.3138C13.2543 27.7405 12.332 29.0567 11.2375 30.2225C10.1711 31.3348 8.69721 31.9641 7.15629 31.965H4.22504C4.47504 32.6808 4.7567 33.4146 5.07004 34.1663H7.15629C9.29928 34.1646 11.3488 33.2888 12.8313 31.7413C14.0709 30.4234 15.1156 28.935 15.9338 27.3213C16.3768 26.4723 17.2911 25.9775 18.2441 26.0709C19.1972 26.1644 19.9979 26.8274 20.2675 27.7463C20.57 28.76 20.87 29.915 21.1625 31.1788C21.2338 31.5675 21.9313 35.2038 23.5375 38.19C24.4956 39.962 26.3519 41.062 28.3663 41.0513C30.4584 41.0467 32.3683 39.8607 33.3 37.9875C34.4488 35.6388 35.6625 33.905 36.8088 32.975L36.8088 32.975Z" fill="white"/>
<path d="M50.1125 32.6126C50.0403 32.6124 49.9684 32.6053 49.8975 32.5913C49.827 32.5768 49.758 32.5559 49.6913 32.5288C49.6247 32.5012 49.561 32.4668 49.5013 32.4263C49.4412 32.3869 49.3855 32.3412 49.335 32.2901C49.2841 32.2387 49.2381 32.1826 49.1975 32.1226C49.1572 32.063 49.1233 31.9993 49.0963 31.9326C49.0681 31.8663 49.0471 31.7971 49.0338 31.7263C49.0193 31.656 49.0122 31.5844 49.0125 31.5126C49.0121 31.4396 49.0192 31.3667 49.0338 31.2951C49.0473 31.2248 49.0683 31.156 49.0963 31.0901C49.1235 31.0231 49.1575 30.959 49.1975 30.8988C49.2381 30.8393 49.2841 30.7836 49.335 30.7326C49.3859 30.6818 49.4415 30.6362 49.5013 30.5963C49.561 30.5559 49.6247 30.5215 49.6913 30.4938C49.758 30.4668 49.827 30.4459 49.8975 30.4313C50.2582 30.362 50.6299 30.4746 50.8913 30.7326C50.9418 30.7839 50.9878 30.8396 51.0288 30.8988C51.067 30.9599 51.1004 31.0239 51.1288 31.0901C51.1562 31.1562 51.1771 31.2249 51.1913 31.2951C51.2063 31.3666 51.2138 31.4395 51.2138 31.5126C51.2137 31.5844 51.2062 31.6561 51.1913 31.7263C51.1773 31.797 51.1564 31.8661 51.1288 31.9326C51.1007 31.9986 51.0673 32.0621 51.0288 32.1226C50.9879 32.1823 50.9419 32.2383 50.8913 32.2901C50.6841 32.4957 50.4044 32.6115 50.1125 32.6126V32.6126Z" fill="white"/>
</svg>
